<?xml version="1.0" encoding="UTF-8" standalone="no"?> <svg id="Layer_1" data-name="Layer 1" xmlns="http://www.w3.org/2000/svg" xmlns:xlink="http://www.w3.org/1999/xlink" viewBox="0 0 512 512"><defs><style>.cls-1{fill:url(#linear-gradient);}.cls-2{fill:url(#linear-gradient-2);}.cls-3{fill:url(#linear-gradient-3);}.cls-4{fill:url(#linear-gradient-4);}.cls-5{fill:url(#linear-gradient-8);}.cls-6{fill:url(#linear-gradient-9);}</style><linearGradient id="linear-gradient" x1="256" y1="-0.066" x2="256" y2="144.058" gradientUnits="userSpaceOnUse"><stop offset="0" stop-color="#fff"/><stop offset="1" stop-color="#edf2f0"/></linearGradient><linearGradient id="linear-gradient-2" x1="256" y1="149.669" x2="256" y2="387.325" gradientUnits="userSpaceOnUse"><stop offset="0" stop-color="#3e4154"/><stop offset="1" stop-color="#1b2129"/></linearGradient><linearGradient id="linear-gradient-3" x1="256" y1="532.326" x2="256" y2="264.742" gradientUnits="userSpaceOnUse"><stop offset="0" stop-color="#fcfdfc"/><stop offset="0.252" stop-color="#f7f8f7"/><stop offset="0.559" stop-color="#e8ebea"/><stop offset="0.891" stop-color="#d0d4d5"/><stop offset="1" stop-color="#c6cbcc"/></linearGradient><linearGradient id="linear-gradient-4" x1="256" y1="436.857" x2="256" y2="335.492" gradientUnits="userSpaceOnUse"><stop offset="0" stop-color="#c6cbcc"/><stop offset="1" stop-color="#9fa5a6"/></linearGradient><linearGradient id="linear-gradient-8" x1="349.333" y1="206.051" x2="349.333" y2="218.066" xlink:href="#linear-gradient"/><linearGradient id="linear-gradient-9" x1="418.667" y1="204.464" x2="418.667" y2="219.602" gradientUnits="userSpaceOnUse"><stop offset="0" stop-color="#4aff9e"/><stop offset="1" stop-color="#43dc8f"/></linearGradient></defs><path class="cls-1" d="M373.333,42.667H138.667A21.356,21.356,0,0,0,117.333,64V170.667H394.667V64A21.356,21.356,0,0,0,373.333,42.667Z"/><rect class="cls-2" x="42.667" y="149.333" width="426.667" height="245.333" rx="32"/><path class="cls-3" d="M117.333,298.667V448a21.354,21.354,0,0,0,21.334,21.333H373.333A21.354,21.354,0,0,0,394.667,448V298.667Z"/><path class="cls-4" d="M346.667,405.333H165.333a5.333,5.333,0,1,1,0-10.666H346.667a5.333,5.333,0,0,1,0,10.666Z"/><path class="cls-4" d="M346.667,437.333H165.333a5.333,5.333,0,1,1,0-10.666H346.667a5.333,5.333,0,0,1,0,10.666Z"/><path class="cls-4" d="M346.667,341.333H165.333a5.333,5.333,0,1,1,0-10.666H346.667a5.333,5.333,0,0,1,0,10.666Z"/><path class="cls-4" d="M346.667,373.333H165.333a5.333,5.333,0,1,1,0-10.666H346.667a5.333,5.333,0,0,1,0,10.666Z"/><rect class="cls-5" x="309.333" y="208" width="80" height="10.667" rx="5.333"/><circle class="cls-6" cx="418.667" cy="213.333" r="8"/></svg>